<svg width="48" height="48" viewBox="0 0 48 48" fill="none" xmlns="http://www.w3.org/2000/svg">
<path d="M46.8001 20.784C46.7986 20.7829 46.7975 20.7814 46.7964 20.7803L27.2162 1.20081C26.3816 0.365846 25.2719 -0.09375 24.0916 -0.09375C22.9113 -0.09375 21.8017 0.365846 20.9668 1.20081L1.39678 20.7704C1.39019 20.777 1.38323 20.784 1.377 20.7906C-0.336866 22.5143 -0.333936 25.3111 1.38543 27.0305C2.17095 27.8163 3.20806 28.2712 4.31732 28.3192C4.36273 28.3235 4.40814 28.3257 4.45392 28.3257H5.23395V42.7347C5.23395 45.5864 7.55426 47.9063 10.406 47.9063H18.0664C18.8431 47.9063 19.4726 47.2765 19.4726 46.5001V35.2032C19.4726 33.902 20.5313 32.8437 21.8325 32.8437H26.3508C27.652 32.8437 28.7103 33.902 28.7103 35.2032V46.5001C28.7103 47.2765 29.3398 47.9063 30.1166 47.9063H37.777C40.629 47.9063 42.949 45.5864 42.949 42.7347V28.3257H43.6726C44.8526 28.3257 45.9622 27.8661 46.7975 27.0308C48.5187 25.3089 48.5194 22.507 46.8001 20.784ZM44.8086 25.0423C44.505 25.3459 44.1015 25.5132 43.6726 25.5132H41.5427C40.766 25.5132 40.1365 26.1428 40.1365 26.9195V42.7347C40.1365 44.0355 39.0781 45.0938 37.777 45.0938H31.5228V35.2032C31.5228 32.3515 29.2029 30.0312 26.3508 30.0312H21.8325C18.9804 30.0312 16.6601 32.3515 16.6601 35.2032V45.0938H10.406C9.10517 45.0938 8.04645 44.0355 8.04645 42.7347V26.9195C8.04645 26.1428 7.41693 25.5132 6.6402 25.5132H4.54693C4.52496 25.5118 4.50335 25.5107 4.48102 25.5103C4.06207 25.503 3.66912 25.3367 3.37469 25.0419C2.74847 24.4157 2.74847 23.3965 3.37469 22.7699C3.37506 22.7699 3.37506 22.7696 3.37542 22.7692L3.37652 22.7681L22.956 3.18934C23.2593 2.88575 23.6624 2.71876 24.0916 2.71876C24.5205 2.71876 24.9237 2.88575 25.2273 3.18934L44.8024 22.7641C44.8053 22.767 44.8086 22.7699 44.8115 22.7729C45.4345 23.4002 45.4334 24.4172 44.8086 25.0423Z" fill="white"/>
</svg>
